<svg id="SvgjsSvg1006" width="288" height="288" xmlns="http://www.w3.org/2000/svg" version="1.1" xmlns:xlink="http://www.w3.org/1999/xlink" xmlns:svgjs="http://svgjs.com/svgjs"><defs id="SvgjsDefs1007"></defs><g id="SvgjsG1008" transform="matrix(1,0,0,1,0,0)"><svg xmlns="http://www.w3.org/2000/svg" enable-background="new 0 0 512 512" viewBox="0 0 512 512" width="288" height="288"><path d="M281.984 329.382v-102.53c0-4.465-3.618-8.084-8.084-8.084-4.466 0-8.084 3.62-8.084 8.084v98.723h-19.631V108.396c0-4.208 3.423-7.632 7.631-7.632h4.368c4.208 0 7.632 3.423 7.632 7.632v92.049c0 4.465 3.618 8.084 8.084 8.084 4.466 0 8.084-3.62 8.084-8.084v-92.049c0-13.123-10.677-23.8-23.8-23.8h-4.368c-13.123 0-23.8 10.677-23.8 23.8v220.986c-6.56 4.243-10.914 11.616-10.914 19.994v19.209 92.55c0 13.123 10.677 23.8 23.8 23.8h26.194c13.123 0 23.8-10.677 23.8-23.8v-92.55-19.209C292.896 340.998 288.544 333.625 281.984 329.382zM276.729 461.134c-.001 4.207-3.423 7.631-7.633 7.631h-26.193c-4.208 0-7.631-3.423-7.631-7.631v-84.466h41.457V461.134zM276.729 360.5h-41.457v-11.125c0-3.396 2.231-6.279 5.304-7.265.347-.111.7-.191 1.055-.251.068-.012.136-.022.205-.031.355-.051.71-.084 1.068-.084h26.192c.358 0 .714.033 1.068.084.069.01.138.02.207.031.354.06.705.14 1.051.25 3.074.986 5.306 3.87 5.306 7.266V360.5zM273.9 495.832H238.1c-4.465 0-8.084 3.62-8.084 8.084 0 4.465 3.62 8.084 8.084 8.084H273.9c4.466 0 8.084-3.62 8.084-8.084C281.984 499.451 278.365 495.832 273.9 495.832zM392.205 132.963h-41.752c-4.466 0-8.084 3.62-8.084 8.084 0 4.465 3.619 8.084 8.084 8.084h41.752c4.466 0 8.084-3.62 8.084-8.084C400.289 136.582 396.671 132.963 392.205 132.963zM169.633 147.535c0-4.465-3.62-8.084-8.084-8.084h-41.753c-4.465 0-8.084 3.62-8.084 8.084 0 4.465 3.62 8.084 8.084 8.084h41.753C166.013 155.619 169.633 151.999 169.633 147.535zM326.211 80.925L355.735 51.4c3.157-3.157 3.157-8.276 0-11.432-3.158-3.157-8.276-3.157-11.433 0l-29.526 29.523c-3.157 3.157-3.157 8.276 0 11.432 1.579 1.578 3.649 2.368 5.717 2.368C322.562 83.292 324.632 82.503 326.211 80.925zM185.79 207.655l-29.525 29.524c-3.157 3.157-3.157 8.276 0 11.432 1.578 1.579 3.648 2.368 5.716 2.368s4.138-.789 5.716-2.368l29.525-29.523c3.157-3.157 3.157-8.276 0-11.432C194.066 204.498 188.947 204.498 185.79 207.655zM252.756 57.922c4.466 0 8.084-3.62 8.084-8.084V8.084c0-4.465-3.619-8.084-8.084-8.084-4.465 0-8.084 3.62-8.084 8.084v41.753C244.671 54.302 248.291 57.922 252.756 57.922zM181.202 85.513c1.578 1.579 3.648 2.368 5.716 2.368s4.138-.789 5.716-2.368c3.157-3.157 3.157-8.275 0-11.432L163.11 44.556c-3.156-3.158-8.275-3.157-11.432 0-3.157 3.157-3.157 8.275 0 11.432L181.202 85.513zM330.799 203.067c-3.158-3.157-8.277-3.157-11.432 0-3.158 3.157-3.158 8.275-.001 11.432l29.523 29.525c1.579 1.579 3.648 2.368 5.717 2.368 2.068 0 4.138-.789 5.716-2.368 3.158-3.157 3.158-8.275.001-11.432L330.799 203.067z" fill="#ffffff" class="color000 svgShape"></path></svg></g></svg>